<?xml version="1.0" standalone="no"?>
<!DOCTYPE svg PUBLIC "-//W3C//DTD SVG 20010904//EN"
 "http://www.w3.org/TR/2001/REC-SVG-20010904/DTD/svg10.dtd">
<svg version="1.0" xmlns="http://www.w3.org/2000/svg"
 width="404.000000pt" height="121.000000pt" viewBox="0 0 404.000000 121.000000"
 preserveAspectRatio="xMidYMid meet">
<metadata>
Created by potrace 1.16, written by Peter Selinger 2001-2019
</metadata>
<g transform="translate(0.000000,121.000000) scale(0.100000,-0.100000)"
fill="#000000" stroke="none">
<path d="M78 1143 c-14 -9 -31 -27 -37 -40 -7 -16 -11 -183 -11 -504 l0 -481
34 -34 34 -34 1906 0 c1348 0 1912 3 1929 11 57 26 57 24 57 543 0 320 -4 483
-11 499 -6 13 -23 31 -39 40 -26 16 -173 17 -1932 17 -1755 -1 -1905 -2 -1930
-17z m1222 -194 c30 -6 54 -18 60 -29 6 -10 10 -57 10 -105 l0 -86 -62 3 -63
3 -3 43 c-3 37 -6 42 -27 42 -34 0 -41 -19 -35 -92 l5 -63 50 -2 c28 -2 69 -5
93 -9 l42 -5 0 -154 c0 -85 -4 -164 -9 -177 -5 -14 -27 -32 -51 -43 -37 -17
-50 -18 -116 -8 -102 15 -121 29 -129 98 -4 30 -4 80 0 110 7 59 10 61 74 49
30 -6 31 -9 31 -55 0 -35 4 -49 14 -49 7 0 28 -3 45 -6 l31 -6 0 84 0 85 -85
5 c-47 2 -87 7 -90 10 -3 2 -8 79 -12 170 -7 185 -9 178 67 189 72 10 106 10
160 -2z m-825 -15 c33 -8 64 -19 69 -24 12 -12 45 -158 45 -200 1 -45 -33
-120 -54 -120 -23 0 -18 -15 9 -28 35 -16 50 -77 41 -170 -10 -112 -24 -119
-233 -124 l-102 -3 -5 30 c-8 41 -11 219 -7 458 l2 197 88 0 c48 0 115 -7 147
-16z m333 7 c11 -7 12 -57 3 -281 -10 -251 -9 -275 6 -302 15 -25 22 -28 48
-22 16 3 34 9 38 11 5 3 6 92 2 198 -4 106 -4 240 0 299 l7 106 44 0 44 0 0
-297 c0 -355 0 -356 -79 -379 -40 -11 -74 -14 -121 -9 -100 10 -105 12 -130
63 -22 46 -23 53 -21 327 2 202 6 282 14 287 16 10 129 10 145 -1z m917 -1 c3
-5 3 -37 -1 -70 l-7 -60 -33 0 -34 0 0 -270 0 -270 -57 0 c-32 0 -69 -3 -82
-7 l-24 -6 8 281 7 282 -46 0 -46 0 0 43 c0 91 -7 87 161 87 86 0 150 -4 154
-10z m641 -5 c41 -12 53 -22 77 -60 27 -46 27 -46 27 -235 0 -199 -9 -272 -42
-332 l-21 -36 -121 -7 c-67 -4 -131 -6 -142 -3 -21 4 -21 -16 -16 448 l2 240
93 0 c53 0 115 -6 143 -15z m268 -12 c2 -16 8 -77 11 -138 7 -139 15 -199 25
-188 4 4 17 71 29 148 32 199 27 185 72 185 21 0 39 -1 39 -2 7 -67 50 -292
57 -299 7 -7 16 34 27 123 27 218 20 198 72 198 l46 0 -6 -57 c-3 -32 -8 -159
-11 -283 -3 -124 -8 -250 -11 -281 l-6 -57 -67 -6 c-108 -11 -103 -18 -122
162 -6 62 -15 110 -20 105 -4 -4 -18 -68 -31 -141 l-23 -133 -50 6 c-27 3 -66
8 -86 11 l-37 5 -6 207 c-4 114 -9 264 -12 335 l-6 127 55 0 c53 0 56 -1 61
-27z m748 -74 l3 -89 -97 0 -98 0 0 -61 0 -61 73 4 72 3 3 -42 3 -42 -70 -7
-71 -7 0 -62 0 -62 46 -7 c26 -3 69 -6 96 -6 l49 0 -3 -72 c-2 -51 -7 -73 -15
-72 -7 1 -78 2 -158 3 l-145 1 0 303 c0 166 3 318 6 337 l6 35 148 -3 149 -3
3 -90z m283 86 c33 -9 65 -21 71 -28 16 -16 44 -146 44 -202 0 -54 -12 -81
-48 -112 -20 -17 -23 -23 -11 -23 45 0 70 -84 57 -186 -14 -105 -19 -108 -192
-112 l-143 -4 -6 53 c-9 71 -9 614 0 622 12 13 169 7 228 -8z m-1585 -85 l0
-90 -94 0 -93 0 -7 -31 c-3 -17 -6 -45 -6 -61 l0 -30 75 4 c52 2 75 0 75 -8 0
-6 3 -25 6 -42 l6 -31 -71 -7 -71 -7 0 -62 0 -62 38 -7 c20 -3 63 -6 95 -6
l58 0 -3 -72 c-2 -51 -7 -73 -15 -72 -7 1 -81 2 -164 3 l-152 1 7 320 c4 177
9 327 13 335 4 12 33 15 154 15 l149 0 0 -90z"/>
<path d="M370 740 c0 -98 0 -100 23 -100 39 0 59 32 64 104 6 64 5 64 -25 80
-59 31 -62 27 -62 -84z"/>
<path d="M2200 627 c0 -107 -3 -203 -6 -212 -6 -14 1 -16 47 -13 l54 3 14 145
c13 138 11 218 -8 249 -5 7 -29 16 -55 18 l-46 6 0 -196z"/>
<path d="M3560 778 c0 -129 16 -159 63 -124 15 11 37 95 37 141 0 15 -54 45
-79 45 -19 0 -21 -6 -21 -62z"/>
</g>
</svg>
